# xmcd
#
# Track frame offsets:
#	150
#	12732
#	30199
#	43980
#	58850
#	71462
#	84849
#	95425
#	111909
#	125466
#	139595
#	154644
#	169239
#	183977
#	196399
#	210995
#	227479
#	242196
#	256093
#	270196
#	284956
#	297612
#	313132
#	324513
#	339926
#
# Disc length: 4775 seconds
#
# Revision: 0
# Processed by: cddbd v1.4PL0 Copyright (c) Steve Scherf et al.
# Submitted via: EasyCDDAExtractor 4.5.0.2
#
DISCID=6a12a519
DTITLE=Ta Xrysa Laika No 1
DYEAR=1900
DGENRE=
TTITLE0=то ацяиокоукоудо  -  йафамтфидгс
TTITLE1=а - ы  -  лпихийытсгс
TTITLE2=йахе килами йаи йаулос  -  цабакас
TTITLE3=йаи ти дем йамы  -  диомусиоу
TTITLE4=сто стауяодяоли  -  цабакас -яиа йоуятг
TTITLE5=думалитг ле жутгки  -  аццекопоукос
TTITLE6=ема спиято амаллемо  -  лпихийытсгс
TTITLE7=та пгяес ока  -  диомусиоу
TTITLE8=яине лиа фаяиа йакг  -  лпихийытсгс
TTITLE9=ецы о немос  -  диомусиоу
TTITLE10=ои беяцоукес  -  лпихийытсгс
TTITLE11=ецы еилаи ема пакиопаидо  -  цабакас
TTITLE12=еьана адийа ма бяы  -  йафамтфидгс
TTITLE13=бяевеи жытиа стг стяата лоу  -  диомусиоу
TTITLE14=ацапес лоу пеяастийес  -  аццекопоукос
TTITLE15=йаядиа паяапомиаяа  -  йафамтфидгс
TTITLE16=о пакиатфгс  -  диомусиоу
TTITLE17=амхяыпос еисаи йаи куцас  -  диомусиоу
TTITLE18=лоу спасаме том лпацкала  -  цабакас
TTITLE19=дем пеяилема апо сема  -  цабакас
TTITLE20=ле сйотысе циати тгм ацапоуса  -  диомусиоу
TTITLE21=омеияо делемо  -  цабакас
TTITLE22=г ламма г тоуяйа  -  аццекопоукос
TTITLE23=алжибокиес  -  лпихийытсгс
TTITLE24=апойоилгхгйа  -  диомусиоу
EXTD=
EXTT0=
EXTT1=
EXTT2=
EXTT3=
EXTT4=
EXTT5=
EXTT6=
EXTT7=
EXTT8=
EXTT9=
EXTT10=
EXTT11=
EXTT12=
EXTT13=
EXTT14=
EXTT15=
EXTT16=
EXTT17=
EXTT18=
EXTT19=
EXTT20=
EXTT21=
EXTT22=
EXTT23=
EXTT24=
PLAYORDER=
